<?xml version="1.0" encoding="UTF-8"?> <svg xmlns="http://www.w3.org/2000/svg" width="52" height="54" viewBox="0 0 52 54" fill="none"><path d="M12.0707 23.5092C12.0707 22.9529 12.4339 22.5764 13.0353 22.5764H16.9098V18.6284C16.9098 18.0454 17.2679 17.6688 17.8335 17.6688C18.3848 17.6688 18.7429 18.0454 18.7429 18.6284V22.5764H22.5379C23.1587 22.5764 23.5494 22.9529 23.5494 23.5092C23.5494 24.0932 23.1587 24.4656 22.5379 24.4656H18.7429V28.4269C18.7429 29.0099 18.3848 29.3823 17.8335 29.3823C17.2679 29.3823 16.9098 29.0099 16.9098 28.4269V24.4656H13.0353C12.4339 24.4656 12.0707 24.0932 12.0707 23.5092ZM36.7803 23.1063C35.5085 23.1063 34.4715 22.0919 34.4715 20.8058C34.4715 19.5114 35.5085 18.5011 36.7803 18.5011C38.0664 18.5011 39.0943 19.5114 39.0943 20.8058C39.0943 22.0919 38.0664 23.1063 36.7803 23.1063ZM31.3815 28.362C30.1045 28.362 29.0726 27.3517 29.0726 26.0615C29.0726 24.7763 30.1045 23.7568 31.3815 23.7568C32.6676 23.7568 33.6953 24.7763 33.6953 26.0615C33.6953 27.3517 32.6676 28.362 31.3815 28.362ZM7.70925 42.1216C9.72763 42.1216 11.396 41.3107 12.7717 39.6184L16.0058 35.7013C16.4838 35.1217 16.9821 34.8767 17.5616 34.8767H34.4383C35.0179 34.8767 35.5162 35.1217 35.9983 35.7013L39.2233 39.6184C40.6081 41.3107 42.2765 42.1216 44.2908 42.1216C47.9417 42.1216 50.38 39.6666 50.38 35.9266C50.38 34.2968 49.976 32.4003 49.3054 30.1446C48.2524 26.6175 46.4172 21.849 44.6197 18.054C43.2082 15.0977 42.5122 13.8805 39.1166 13.1056C35.7665 12.3376 31.2489 11.8784 25.9954 11.8784C20.7552 11.8784 16.2335 12.3376 12.8835 13.1056C9.49184 13.8805 8.79595 15.0977 7.38443 18.054C5.58278 21.849 3.75167 26.6175 2.69869 30.1446C2.02812 32.4003 1.62 34.2968 1.62 35.9266C1.62 39.6666 4.05836 42.1216 7.70925 42.1216Z" fill="#1D1D1F"></path></svg> 