<svg width="24" height="24" viewBox="0 0 24 24" fill="none" xmlns="http://www.w3.org/2000/svg">
<mask id="mask0_2001_52" style="mask-type:luminance" maskUnits="userSpaceOnUse" x="0" y="0" width="24" height="24">
<path fill-rule="evenodd" clip-rule="evenodd" d="M5.96473 0.0109086L6.99158 0L17.6724 0.00436401C17.8346 0.00581856 17.9356 0.00799956 18.036 0.0109086C18.5654 0.0247268 19.0999 0.0552727 19.6235 0.149091C20.148 0.237591 20.6566 0.403267 21.1325 0.640728C21.6067 0.879273 22.0416 1.19055 22.4176 1.56364C22.7937 1.93495 23.1086 2.36354 23.3506 2.83345C23.5978 3.31127 23.7527 3.80073 23.848 4.32582C23.9425 4.84364 23.9738 5.37164 23.9876 5.89527C23.9949 6.13527 23.9978 6.37527 23.9985 6.616L24 7.04436V16.5258C24 16.8109 24 17.0967 23.9985 17.3825C23.9971 17.6225 23.9949 17.8625 23.9876 18.1025C23.9731 18.6262 23.9425 19.1549 23.848 19.672C23.7583 20.1917 23.5906 20.6948 23.3506 21.1644C23.1085 21.6344 22.7936 22.0632 22.4176 22.4349C22.0401 22.8079 21.6065 23.1193 21.1325 23.3578C20.6566 23.5953 20.1481 23.761 19.6235 23.8495C19.0999 23.9425 18.5654 23.9731 18.036 23.9876L16.4405 24L6.32762 23.9942C6.20664 23.9929 6.08567 23.9904 5.96473 23.9869C5.43531 23.9738 4.90079 23.9425 4.37719 23.8495C3.85292 23.7609 3.34465 23.5953 2.86892 23.3578C1.91665 22.8785 1.13992 22.1109 0.649415 21.1644C0.409778 20.6946 0.242097 20.1916 0.151991 19.672C0.0574508 19.1549 0.0269072 18.6262 0.0130899 18.1033C0.00581757 17.8633 0.00363633 17.6225 0.00218187 17.3825L0 16.9527V7.47273C0 7.18764 1.88624e-07 6.90182 0.00218187 6.61673C0.00363633 6.37673 0.0065448 6.13673 0.0130899 5.896C0.0276344 5.37236 0.058178 4.84436 0.151991 4.32655C0.242043 3.80696 0.409727 3.30388 0.649415 2.83418C1.13921 1.88733 1.91581 1.11959 2.86819 0.640728C3.34417 0.403257 3.85268 0.237581 4.37719 0.149091C4.90079 0.0559999 5.43531 0.0254541 5.96473 0.0109086Z" fill="white"/>
</mask>
<g mask="url(#mask0_2001_52)">
<path d="M23.9639 23.9622H0V21.8148L23.9639 18.0706V23.9622ZM0 4.59114L7.35742 5.74153L7.25488 5.84114C6.0906 7.01156 5.42873 8.58853 5.42871 10.2191C5.42875 11.5158 5.72259 12.8095 6.32812 14.1077L6.58008 14.6478H7.21289C8.4349 14.655 9.2436 15.0288 9.77148 15.6859C10.1904 16.2057 10.4294 16.9054 10.5049 17.6634L10.5176 17.7943L10.5254 17.8714C10.5631 18.2718 10.5872 18.6021 10.5967 18.8597L10.5977 18.9075L10.5996 18.9388L10.6006 18.9984L10.6045 19.2103L0 20.8675V4.59114ZM11.9814 4.86555C15.3274 4.86555 17.5986 7.44094 17.5986 10.2191C17.5986 11.3342 17.3548 12.4945 16.7871 13.7113C13.4956 13.7113 12.6832 16.0689 12.5293 17.5531L12.5186 17.6507C12.467 18.1806 12.4367 18.6057 12.4287 18.9251L11.5371 19.0648V19.0355C11.5247 18.5637 11.4928 18.0924 11.4414 17.6234L11.4395 17.597C11.2971 16.1164 10.5017 13.7113 7.17676 13.7113C6.60838 12.4945 6.36529 11.3342 6.36523 10.2191C6.36523 7.441 8.63634 4.86567 11.9814 4.86555ZM23.9639 8.33528V17.1234L13.3711 18.7786C13.382 18.5464 13.4024 18.2609 13.4336 17.9241L13.4434 17.8216L13.4482 17.7689L13.46 17.6488L13.4629 17.6253C13.5442 16.8718 13.7872 16.1801 14.2061 15.6683C14.7405 15.0157 15.5568 14.6478 16.7881 14.6478H17.3828L17.6357 14.1077L17.6533 14.0687C18.2472 12.7835 18.5341 11.5028 18.5342 10.2191C18.5327 9.22926 18.2918 8.25436 17.833 7.37727L23.9639 8.33528ZM23.9639 7.38801L17.1406 6.32161C17.0051 6.15491 16.8612 5.99481 16.709 5.84114C15.4978 4.62417 13.833 3.93001 11.9814 3.93001C10.6448 3.93005 9.40641 4.29226 8.36523 4.95149L0 3.64387V-0.0016346H23.9639V7.38801Z" fill="black"/>
</g>
</svg>
