<?xml version="1.0" encoding="UTF-8"?> <svg xmlns="http://www.w3.org/2000/svg" width="60" height="60" viewBox="0 0 60 60" fill="none"><path d="M49.0062 10.7864C49.0283 10.1374 48.9819 9.48777 48.8677 8.84844C48.7401 8.21087 48.4391 7.62086 47.9977 7.14334C47.555 6.67431 46.9877 6.34114 46.3624 6.18284C45.738 6.04238 45.0981 5.98242 44.4583 6.00444C44.3406 6.00391 44.2218 6.00364 44.1019 6.00364H31.1162H30.7703C30.5393 6.00364 30.2959 6.00454 30.0878 6.00974C29.7444 6.01455 29.4017 6.04312 29.0621 6.09524C28.7401 6.1457 28.4256 6.23572 28.1256 6.36324C27.7931 6.50661 27.4861 6.70311 27.2166 6.94504C26.7002 7.41436 26.3379 8.02901 26.1773 8.70814C26.0788 9.13315 26.0257 9.56742 26.0189 10.0036C26.0132 10.1708 26.0089 10.3374 26.0081 10.5042C26.0062 10.7623 26.0062 11.0183 26.0062 11.2764V49.2211C25.9839 49.8702 26.0303 50.5197 26.1445 51.159C26.2721 51.7967 26.5732 52.3867 27.0145 52.8642C27.0622 52.915 27.1157 52.9564 27.1657 53.0035C27.3713 53.199 27.6012 53.367 27.8498 53.5035C28.1027 53.6423 28.3713 53.7501 28.6498 53.8246C28.9813 53.9084 29.3201 53.9597 29.6614 53.9778C29.9582 53.9973 30.2565 54.0018 30.5539 54.003C30.7393 54.0038 30.9296 54.0037 31.1167 54.003H44.3009C44.9533 54.0277 45.6064 53.9774 46.2473 53.853C46.8903 53.7118 47.4791 53.3884 47.9433 52.9216C48.4049 52.445 48.7222 51.8475 48.8587 51.1982C48.9809 50.5467 49.0303 49.8836 49.0062 49.2211V11.2764C49.0062 11.1124 49.0062 10.9473 49.0062 10.7864ZM35.0382 7.45274C35.0376 7.55236 35.0001 7.64822 34.933 7.72183C34.8659 7.79544 34.7739 7.84158 34.6747 7.85134C34.5987 7.85684 34.5226 7.84115 34.455 7.80603C34.3873 7.7709 34.3307 7.7177 34.2914 7.65234C34.258 7.59097 34.2405 7.52221 34.2405 7.45234C34.2405 7.38247 34.258 7.31371 34.2914 7.25234C34.3307 7.18703 34.3873 7.1339 34.455 7.09886C34.5227 7.06381 34.5987 7.04823 34.6747 7.05384C34.7739 7.06358 34.866 7.10976 34.9331 7.18344C35.0003 7.25711 35.0377 7.35306 35.0382 7.45274ZM35.8062 6.58864C35.8063 6.55342 35.8203 6.51964 35.8452 6.49473C35.8701 6.46981 35.9038 6.45579 35.939 6.45574H39.0235C39.0588 6.45577 39.0925 6.46978 39.1174 6.4947C39.1424 6.51962 39.1563 6.55341 39.1563 6.58864V6.60944C39.1563 6.64465 39.1423 6.67841 39.1174 6.70331C39.0925 6.72821 39.0588 6.74221 39.0235 6.74224H35.9393C35.9219 6.74226 35.9046 6.73885 35.8884 6.73219C35.8723 6.72553 35.8576 6.71575 35.8453 6.70342C35.8329 6.69109 35.8231 6.67644 35.8164 6.66031C35.8097 6.64419 35.8063 6.6269 35.8062 6.60944V6.58864ZM48.0062 11.1947V26.1247V49.2421C48.0283 49.823 47.9872 50.4046 47.8838 50.9766C47.7891 51.445 47.5625 51.8766 47.2306 52.2205C46.8991 52.5532 46.478 52.7822 46.0185 52.8796C45.4524 52.985 44.8763 53.0266 44.3009 53.0036H32.0414C31.6325 53.0036 30.9599 53.0041 30.5579 53.0036C30.2255 53.0022 29.9251 52.9955 29.6423 52.9736C29.3939 52.9578 29.1475 52.9193 28.906 52.8588C28.4621 52.7479 28.059 52.5128 27.7438 52.1809C27.4262 51.8355 27.2109 51.4085 27.122 50.9476C27.0239 50.3777 26.9851 49.7991 27.0062 49.2211V11.2764C27.0062 11.0223 27.0046 10.7577 27.0116 10.5045C27.0126 10.3351 27.0152 10.1672 27.0216 10.0038C27.0273 9.64994 27.0696 9.29757 27.1476 8.95234C27.2603 8.46622 27.5177 8.02567 27.8857 7.68874C28.0748 7.51908 28.2903 7.38134 28.5236 7.28094C28.7485 7.18585 28.9843 7.11898 29.2256 7.08184C29.5195 7.03702 29.8162 7.01283 30.1134 7.00944C30.297 7.00484 30.5101 7.00434 30.7154 7.00414H32.9454C33.0059 7.00144 33.0664 7.00462 33.1262 7.01364C33.1852 7.02257 33.2401 7.04909 33.2837 7.08974C33.3281 7.13057 33.3564 7.18583 33.3637 7.24564C33.375 7.31764 33.3837 7.55654 33.409 7.69804C33.432 7.83072 33.4777 7.95843 33.5441 8.07554C33.6504 8.26112 33.8037 8.41541 33.9885 8.52284C34.1326 8.60465 34.2917 8.65662 34.4563 8.67564C34.6225 8.69202 34.7895 8.6973 34.9563 8.69144H40.0577C40.2246 8.6973 40.3916 8.69202 40.5577 8.67564C40.7223 8.6566 40.8814 8.60464 41.0255 8.52284C41.2105 8.41541 41.3638 8.26112 41.47 8.07554C41.5365 7.95843 41.5821 7.83071 41.605 7.69804C41.6232 7.56345 41.6336 7.42793 41.6362 7.29214C41.6355 7.25349 41.6435 7.21518 41.6598 7.1801C41.676 7.14503 41.7 7.11413 41.73 7.08974C41.7733 7.04932 41.8277 7.02281 41.8862 7.01364C41.946 7.0047 42.0065 7.00159 42.0668 7.00434H44.2586H44.4543C45.009 6.98274 45.5642 7.03146 46.1066 7.14934C46.5506 7.2603 46.9537 7.49549 47.2687 7.82734C47.5864 8.17276 47.8016 8.59975 47.8904 9.06054C47.9886 9.63089 48.0274 10.2099 48.0062 10.7882V11.1947ZM26.285 53.5483C26.2717 53.5341 26.2616 53.5177 26.2485 53.5034C26.1059 53.3466 25.975 53.1795 25.8569 53.0034H15.6709C15.5498 53.0034 15.287 53.0034 15.1626 53.0034C14.6641 53.0232 14.165 52.9795 13.6774 52.8734C13.2876 52.7754 12.934 52.568 12.658 52.2757C12.3777 51.9684 12.1881 51.5893 12.1102 51.1806C12.022 50.6628 11.9872 50.1373 12.0062 49.6123V14.8451C12.0062 14.7333 12.0062 14.4944 12.0062 14.3798C11.9829 13.8268 12.0254 13.2729 12.1327 12.7298C12.2316 12.2995 12.4581 11.9091 12.7827 11.6098C12.9482 11.4605 13.1369 11.3392 13.3413 11.2506C13.5399 11.1664 13.7482 11.1071 13.9613 11.0742C14.2254 11.0337 14.4921 11.0119 14.7592 11.0089C14.9412 11.0043 15.1547 11.0036 15.3575 11.0036H15.5231H15.6722H17.6229C17.678 11.0012 17.7332 11.004 17.7877 11.0121C17.842 11.019 17.8925 11.0434 17.9316 11.0817C17.9707 11.1199 17.9962 11.1699 18.0042 11.2239C18.0136 11.2784 18.018 11.3335 18.0172 11.3887C18.0173 11.5126 18.0268 11.6363 18.0456 11.7587C18.0665 11.8799 18.1082 11.9966 18.1688 12.1036C18.2658 12.2731 18.4058 12.4139 18.5746 12.5119C18.7062 12.5866 18.8515 12.634 19.0017 12.6513C19.1532 12.6664 19.3055 12.6712 19.4576 12.6659H24.5548C24.7055 12.6711 24.8562 12.6664 25.0062 12.6519V11.2764C25.0062 11.0211 25.0056 10.7604 25.0083 10.5043C25.0091 10.3406 25.0132 10.1743 25.0188 10.0043H15.6722L15.3575 10.0036C15.1463 10.0036 14.9237 10.0044 14.7333 10.0092C14.4197 10.0136 14.1067 10.0399 13.7967 10.0877C13.5027 10.1341 13.2155 10.2167 12.9417 10.3338C12.6379 10.4656 12.3575 10.646 12.1117 10.868C11.6397 11.2998 11.309 11.8641 11.1629 12.4869C11.0334 13.1143 10.9808 13.7551 11.0062 14.3952V14.8452V49.6123C10.986 50.2083 11.0284 50.8047 11.1326 51.3917C11.2488 51.9766 11.5234 52.5182 11.9266 52.9574C12.3302 53.3876 12.8482 53.6936 13.4197 53.8393C13.9898 53.9685 14.5742 54.0237 15.1583 54.0036C15.3276 54.0042 15.5014 54.0042 15.6722 54.0036H26.7902C26.6101 53.8654 26.4412 53.7131 26.285 53.5483ZM20.3473 10.5148C20.3473 10.4804 20.361 10.4473 20.3854 10.4229C20.4098 10.3985 20.4429 10.3848 20.4773 10.3848H23.5359C23.553 10.3848 23.5699 10.3882 23.5857 10.3947C23.6015 10.4013 23.6158 10.4108 23.6279 10.4229C23.6399 10.435 23.6495 10.4493 23.656 10.4651C23.6626 10.4809 23.6659 10.4978 23.6659 10.5148V10.5348C23.6659 10.5519 23.6626 10.5688 23.656 10.5846C23.6495 10.6004 23.6399 10.6147 23.6279 10.6268C23.6158 10.6388 23.6015 10.6484 23.5857 10.6549C23.5699 10.6615 23.553 10.6648 23.5359 10.6648H20.4769C20.4425 10.6648 20.4094 10.6511 20.385 10.6268C20.3606 10.6024 20.3469 10.5693 20.3469 10.5348L20.3473 10.5148ZM18.7762 11.3478C18.8165 11.2808 18.8746 11.2262 18.944 11.1901C19.0134 11.1541 19.0915 11.138 19.1695 11.1436C19.2716 11.1531 19.3664 11.2003 19.4354 11.276C19.5045 11.3517 19.5427 11.4505 19.5427 11.553C19.5427 11.6555 19.5045 11.7542 19.4354 11.83C19.3664 11.9057 19.2716 11.9529 19.1695 11.9623C19.0914 11.968 19.0133 11.9519 18.9438 11.9158C18.8743 11.8798 18.8162 11.8252 18.7758 11.758C18.7417 11.695 18.7239 11.6245 18.724 11.5529C18.724 11.4813 18.742 11.4108 18.7762 11.3478Z" fill="#1D1D1F"></path></svg> 