<?xml version="1.0" encoding="UTF-8"?> <svg xmlns="http://www.w3.org/2000/svg" width="60" height="60" viewBox="0 0 60 60" fill="none"><path d="M18.3 42.8821C18.3284 43.3095 18.5043 43.7137 18.7976 44.0259C19.091 44.338 19.4836 44.5385 19.9084 44.5934H21.7482C22.2257 44.5359 22.6645 44.3022 22.9787 43.9381C23.2929 43.574 23.4598 43.1056 23.4468 42.6249V31.7272C21.8117 32.3881 20.0636 32.7246 18.3 32.7179V42.8821ZM23.0979 15.0012C21.0485 14.9729 19.0358 15.5455 17.3081 16.6482C15.6391 17.5732 14.1733 18.8246 12.9979 20.3279C13.982 20.5757 14.9084 21.0127 15.7256 21.6144C16.6113 22.2153 17.3608 22.9956 17.9257 23.9047C18.7618 25.042 19.3053 26.3675 19.5083 27.7644C19.6549 28.5294 19.6549 29.3153 19.5083 30.0803C19.4587 30.3925 19.3767 30.6986 19.2638 30.9938C20.7512 30.8717 22.2123 30.5291 23.5991 29.9774L23.9594 29.7715C25.0672 29.087 26.0944 28.28 27.0216 27.3655L27.1502 27.2113C28.3241 26.0315 29.0517 24.4807 29.2089 22.8238C29.3007 20.9916 28.7801 19.1809 27.7293 17.6771C25.7222 15.2583 24.0237 15.0008 23.1103 15.0008L23.0979 15.0012ZM25.9074 20.4565L23.1284 22.4636C22.8891 22.6395 22.5898 22.7132 22.2962 22.6686C22.0026 22.624 21.7388 22.4647 21.5626 22.2256V22.2192C21.388 21.9622 21.3163 21.6491 21.3616 21.3417C21.4068 21.0344 21.5658 20.7552 21.807 20.5594L24.5346 18.5395C24.7894 18.3874 25.092 18.3366 25.3825 18.3971C25.673 18.4577 25.9301 18.6252 26.1028 18.8665C26.2756 19.1077 26.3514 19.4051 26.3152 19.6996C26.279 19.9941 26.1334 20.2643 25.9074 20.4565ZM18.4271 28.1762C18.176 26.7658 17.5793 25.4396 16.6902 24.3163C16.2219 23.5657 15.6201 22.9073 14.9146 22.3736C14.3307 21.9339 13.6443 21.6505 12.9203 21.5501C12.3588 21.457 11.7824 21.5285 11.2607 21.756C10.0028 22.3443 9.00504 23.3743 8.45708 24.6503C8.20208 25.2646 8.04953 25.9165 8.0055 26.5802C7.98117 27.1004 8.03759 27.6212 8.17274 28.1241C8.23883 28.3608 8.32051 28.5929 8.41724 28.8189C8.65088 29.3522 8.94437 29.8572 9.29206 30.3242C9.71189 30.9509 10.2287 31.5069 10.8232 31.9712C11.8592 32.7512 13.1463 33.1222 14.4385 33.0134C15.1516 32.9839 15.8497 32.7995 16.4843 32.473C17.0986 32.2179 17.6103 31.7651 17.9382 31.1863C18.4491 30.2805 18.6223 29.2229 18.4271 28.2014V28.1762ZM12.3079 31.0068C11.8477 30.9025 11.4138 30.7047 11.0332 30.4259C10.6525 30.147 10.3332 29.7929 10.095 29.3856C9.81393 29.0244 9.60775 28.6108 9.48846 28.1689C9.36917 27.7271 9.33916 27.2659 9.4002 26.8124C9.58028 26.2206 10.2622 26.2334 10.6868 26.8124L12.7968 29.7201C13.1198 30.3248 12.8753 31.0582 12.3092 31.0068H12.3079ZM42.5199 32.705C40.7571 32.7162 39.009 32.384 37.3732 31.7272V42.6249C37.3601 43.1059 37.5272 43.5744 37.8417 43.9385C38.1562 44.3027 38.5954 44.5362 39.0731 44.5934H40.9129C41.3332 44.5388 41.7221 44.3417 42.0145 44.0349C42.307 43.7281 42.4854 43.3303 42.5199 42.9079V32.705ZM41.2333 30.119C41.0944 29.3749 41.0944 28.6115 41.2333 27.8674C41.4356 26.4703 41.9792 25.1446 42.8158 24.0076C43.3908 23.0529 44.1681 22.236 45.0931 21.6144C45.9102 21.0127 46.8367 20.5757 47.8207 20.3279C46.6451 18.8249 45.1793 17.5736 43.5106 16.6482C41.7797 15.5433 39.7626 14.9706 37.7093 15.0012C36.7829 15.0012 35.1361 15.2457 33.0646 17.6775C32.0133 19.181 31.4927 20.9919 31.585 22.8242C31.7416 24.4812 32.4694 26.0322 33.6437 27.2116L33.7724 27.3659C34.699 28.2809 35.7263 29.0881 36.8345 29.7719L37.1948 29.9778C38.5815 30.5297 40.0426 30.8722 41.5301 30.9942C41.4027 30.7175 41.3036 30.4287 41.2343 30.1322L41.2333 30.119ZM39.2757 22.2062C39.1895 22.3253 39.0807 22.4263 38.9554 22.5033C38.8302 22.5804 38.691 22.632 38.5458 22.6552C38.4006 22.6785 38.2523 22.6729 38.1093 22.6388C37.9662 22.6046 37.8313 22.5427 37.7122 22.4564L34.9139 20.457C34.6844 20.2675 34.535 19.9983 34.4956 19.7034C34.4561 19.4084 34.5295 19.1095 34.7012 18.8664C34.8728 18.6233 35.1299 18.454 35.421 18.3924C35.7122 18.3308 36.0158 18.3815 36.2712 18.5343L38.9988 20.5543C39.2486 20.7241 39.4211 20.9856 39.479 21.282C39.5368 21.5784 39.4752 21.8857 39.3076 22.1368L39.2757 22.2062ZM52.3239 24.7023C51.7765 23.4478 50.794 22.4334 49.5577 21.846C49.0361 21.6188 48.4599 21.5473 47.8986 21.6401C47.1745 21.74 46.488 22.0235 45.9044 22.4636C45.198 22.9965 44.596 23.655 44.1282 24.4061C43.2381 25.5288 42.6412 26.8553 42.3913 28.266C42.1856 29.2844 42.3499 30.3427 42.8545 31.2509C43.1817 31.8302 43.6935 32.2832 44.3083 32.5376C44.9555 32.8462 45.6627 33.0088 46.3798 33.0136C47.6661 33.1229 48.9478 32.7566 49.9822 31.9843C50.5819 31.5169 51.1031 30.9568 51.5263 30.3252C51.8687 29.8571 52.1578 29.3521 52.3882 28.8198C52.4839 28.5935 52.5656 28.3615 52.6327 28.1251C52.7715 27.6227 52.8323 27.1019 52.8128 26.5811C52.7552 25.932 52.5899 25.2971 52.3239 24.7023ZM50.7265 29.4373C50.4804 29.8458 50.154 30.2001 49.767 30.4788C49.38 30.7575 48.9404 30.9547 48.4749 31.0585C47.9089 31.0585 47.6644 30.3766 48.0375 29.7718L50.1475 26.8644C50.5207 26.2468 51.2026 26.234 51.4342 26.8644C51.4927 27.3188 51.4603 27.7802 51.3388 28.2218C51.2173 28.6635 51.0092 29.0768 50.7265 29.4373Z" fill="#1D1D1F"></path></svg> 