<?xml version="1.0" encoding="UTF-8"?> <svg xmlns="http://www.w3.org/2000/svg" width="60" height="60" viewBox="0 0 60 60" fill="none"><path d="M42 21.7254V21.4842C42 19.0241 40.6102 16.8911 38.5744 15.8199C37.8898 15.2553 37.5516 14.5304 37.4425 14.2653C37.2182 13.7204 37.1156 13.105 37.1156 13.105C37.1156 13.105 36.731 10.1947 36.6541 9.7139C36.5772 9.2331 36.2679 8.9817 36.2679 8.9817C35.9362 8.7011 35.59 8.5858 35.0533 8.4368C34.09 8.1884 34.0771 8.2333 34.0771 8.2333C34.0771 8.2333 32.731 8 29.9871 8C27.2432 8 25.8971 8.2333 25.8971 8.2333C25.8971 8.2333 25.8844 8.1884 24.9211 8.4369C24.3844 8.5859 24.0383 8.7012 23.7065 8.9818C23.7065 8.9818 23.3972 9.2333 23.3203 9.714C23.2433 10.1948 22.8588 13.1051 22.8588 13.1051C22.8588 13.1051 22.7562 13.7205 22.5318 14.2654C22.4209 14.5348 22.0753 15.2801 21.367 15.8482C19.3626 16.9292 18 19.0472 18 21.4842V37.5342C18 39.8929 19.2796 41.9481 21.179 43.0582L21.1793 43.0733C22.0318 43.6503 22.4107 44.5226 22.5318 44.817C22.7562 45.3619 22.8588 45.9772 22.8588 45.9772C22.8588 45.9772 23.2434 48.8875 23.3203 49.3683C23.3972 49.8491 23.7065 50.1006 23.7065 50.1006C24.0382 50.3812 24.3844 50.4965 24.9211 50.6455C25.8844 50.894 25.8972 50.8492 25.8972 50.8492C25.8972 50.8492 27.2433 51.0824 29.9872 51.0824C32.7311 51.0824 34.0772 50.8491 34.0772 50.8491C34.0772 50.8491 34.09 50.894 35.0533 50.6454C35.59 50.4965 35.9362 50.3811 36.2679 50.1005C36.2679 50.1005 36.5772 49.849 36.6541 49.3682C36.7311 48.8874 37.1156 45.9771 37.1156 45.9771C37.1156 45.9771 37.2182 45.3617 37.4425 44.8169C37.5636 44.5229 37.942 43.6524 38.7924 43.0756C40.7078 41.9697 42 39.9049 42 37.5342V26.5754H42.9996V21.7254H42ZM33.3275 8.2389C34.0263 8.2932 34.5856 8.4296 34.5768 8.5437C34.568 8.6578 33.9943 8.7062 33.2955 8.652C32.5967 8.5977 32.0374 8.4613 32.0462 8.3472C32.055 8.2331 32.6287 8.1846 33.3275 8.2389ZM33.3091 9.1521C34.01 9.1521 34.5782 9.391 34.5782 9.6856C34.5782 9.9803 34.01 10.2192 33.3091 10.2192C32.6082 10.2192 32.04 9.9803 32.04 9.6856C32.04 9.391 32.6082 9.1521 33.3091 9.1521ZM33.3091 11.0138C34.01 11.0138 34.5782 11.3848 34.5782 11.8424C34.5782 12.3001 34.01 12.6711 33.3091 12.6711C32.6082 12.6711 32.04 12.3001 32.04 11.8424C32.04 11.3847 32.6082 11.0138 33.3091 11.0138ZM29.9875 8.4489C30.6884 8.4489 31.2566 8.6401 31.2566 8.876C31.2566 9.1118 30.6884 9.3031 29.9875 9.3031C29.2866 9.3031 28.7185 9.1119 28.7185 8.876C28.7185 8.6401 29.2867 8.4489 29.9875 8.4489ZM31.3607 13.1933C31.3607 13.7324 30.7703 14.1695 30.0421 14.1695C29.3138 14.1695 28.7235 13.7324 28.7235 13.1933C28.7235 12.6541 29.3138 12.217 30.0421 12.217C30.7703 12.217 31.3607 12.6541 31.3607 13.1933ZM29.9875 9.8727C30.6884 9.8727 31.2566 10.1911 31.2566 10.5839C31.2566 10.9767 30.6884 11.2951 29.9875 11.2951C29.2866 11.2951 28.7185 10.9767 28.7185 10.5839C28.7185 10.1911 29.2867 9.8727 29.9875 9.8727ZM26.7829 8.2389C27.4817 8.1846 28.0554 8.2331 28.0642 8.3472C28.0731 8.4612 27.5137 8.5977 26.8149 8.652C26.1161 8.7063 25.5425 8.6578 25.5336 8.5437C25.5247 8.4296 26.084 8.2932 26.7829 8.2389ZM26.7479 9.1521C27.4488 9.1521 28.017 9.391 28.017 9.6856C28.017 9.9803 27.4488 10.2192 26.7479 10.2192C26.047 10.2192 25.4788 9.9803 25.4788 9.6856C25.4788 9.391 26.0469 9.1521 26.7479 9.1521ZM26.7479 11.0138C27.4488 11.0138 28.017 11.3848 28.017 11.8424C28.017 12.3001 27.4488 12.6711 26.7479 12.6711C26.047 12.6711 25.4788 12.3001 25.4788 11.8424C25.4788 11.3847 26.0469 11.0138 26.7479 11.0138ZM26.7479 48.8632C27.4488 48.8632 28.017 49.1021 28.017 49.3967C28.017 49.6914 27.4488 49.9303 26.7479 49.9303C26.047 49.9303 25.4788 49.6914 25.4788 49.3967C25.4788 49.1021 26.0469 48.8632 26.7479 48.8632ZM25.4788 47.2399C25.4788 46.7823 26.047 46.4113 26.7479 46.4113C27.4488 46.4113 28.017 46.7823 28.017 47.2399C28.017 47.6976 27.4488 48.0686 26.7479 48.0686C26.0469 48.0685 25.4788 47.6976 25.4788 47.2399ZM26.7829 50.8434C26.084 50.7891 25.5248 50.6527 25.5336 50.5386C25.5424 50.4245 26.1161 50.3761 26.8149 50.4303C27.5137 50.4845 28.073 50.621 28.0642 50.7351C28.0554 50.8492 27.4817 50.8977 26.7829 50.8434ZM29.9875 50.6334C29.2866 50.6334 28.7185 50.4422 28.7185 50.2063C28.7185 49.9705 29.2867 49.7792 29.9875 49.7792C30.6884 49.7792 31.2566 49.9704 31.2566 50.2063C31.2567 50.4423 30.6885 50.6334 29.9875 50.6334ZM29.9875 49.2096C29.2866 49.2096 28.7185 48.8911 28.7185 48.4984C28.7185 48.1056 29.2867 47.7871 29.9875 47.7871C30.6884 47.7871 31.2566 48.1056 31.2566 48.4984C31.2567 48.8911 30.6885 49.2096 29.9875 49.2096ZM30.0421 46.8653C29.3138 46.8653 28.7235 46.4282 28.7235 45.889C28.7235 45.3499 29.3138 44.9128 30.0421 44.9128C30.7703 44.9128 31.3607 45.3499 31.3607 45.889C31.3607 46.4282 30.7703 46.8653 30.0421 46.8653ZM33.3275 50.8434C32.6287 50.8977 32.055 50.8492 32.0462 50.7351C32.0374 50.621 32.5967 50.4846 33.2955 50.4303C33.9943 50.376 34.568 50.4245 34.5768 50.5386C34.5856 50.6527 34.0262 50.7891 33.3275 50.8434ZM33.3091 49.9302C32.6082 49.9302 32.04 49.6913 32.04 49.3966C32.04 49.102 32.6082 48.8631 33.3091 48.8631C34.01 48.8631 34.5782 49.102 34.5782 49.3966C34.5782 49.6913 34.0099 49.9302 33.3091 49.9302ZM33.3091 48.0685C32.6082 48.0685 32.04 47.6975 32.04 47.2398C32.04 46.7822 32.6082 46.4112 33.3091 46.4112C34.01 46.4112 34.5782 46.7822 34.5782 47.2398C34.5782 47.6976 34.0099 48.0685 33.3091 48.0685ZM41 21.7254L40.9996 26.5754L41 37.5342C41 40.5117 38.5776 42.9342 35.6 42.9342H24.4C21.4225 42.9342 19 40.5118 19 37.5342V21.4842C19 18.5066 21.4224 16.0842 24.4 16.0842H35.6C38.5776 16.0842 41 18.5066 41 21.4842V21.7254Z" fill="#1D1D1F"></path></svg> 